<svg
  width="410"
  height="404"
  viewBox="0 0 410 404"
  xmlns="http://www.w3.org/2000/svg"
>
  <path
    d="m 223.92887,388.06455 c -0.98366,-0.11704 -4.68627,-0.5367 -8.22782,-0.91958 -13.51622,-1.4596 -30.20695,-5.80565 -43.90198,-11.42924 -24.40298,-10.02062 -51.39493,-32.29794 -66.58722,-51.93759 162.24829,0.73732 148.12392,-6.36125 178.38662,-13.7275 3.13266,-1.10683 61.19544,-21.74648 92.43408,-82.16752 14.07364,19.96084 13.00106,5.14692 13.39568,82.64753 l 0.39539,77.79622 -74.89605,-0.0836 c -45.17088,-0.0501 -82.63242,0.33773 -83.61606,0.214 z"
    fill="#744eaa"
  />
  <g
    transform="matrix(19.287397,0,0,16.719439,-29.084562,-27.546095)"
  >
    <path
      d="M 12.3751,20.25 H 4.47194 C 4.37679,20.2513 4.28236,20.2334 4.1942,20.1976 4.10605,20.1618 4.02597,20.1087 3.95869,20.0414 3.8914,19.9741 3.83828,19.894 3.80244,19.8059 3.76661,19.7177 3.7488,19.6233 3.75006,19.5281 V 11.625 c 0,-2.28749 0.90871,-4.48129 2.52621,-6.0988 C 7.89377,3.9087 10.0876,3 12.3751,3 c 1.1326,0 2.2542,0.22309 3.3006,0.65654 1.0464,0.43345 1.9973,1.06876 2.7982,1.86966 0.8009,0.80091 1.4362,1.75172 1.8696,2.79816 0.4335,1.04643 0.6566,2.16794 0.6566,3.30064 0,1.1327 -0.2231,2.2542 -0.6566,3.3006 -0.4334,1.0465 -1.0687,1.9973 -1.8696,2.7982 -0.8009,0.8009 -1.7518,1.4362 -2.7982,1.8697 -1.0464,0.4334 -2.168,0.6565 -3.3006,0.6565 z"
      stroke="#9266cc"
      fill="#ffffff"
    />
    <path
      d="m 13.4531,12 c 0,0.5954 -0.4827,1.0781 -1.0781,1.0781 -0.5954,0 -1.0781,-0.4827 -1.0781,-1.0781 0,-0.5954 0.4827,-1.0781 1.0781,-1.0781 0.5954,0 1.0781,0.4827 1.0781,1.0781 z"
      fill="#9266cc"
    />
    <path
      d="m 8.95312,12 c 0,0.5954 -0.48269,1.0781 -1.07812,1.0781 -0.59543,0 -1.07812,-0.4827 -1.07812,-1.0781 0,-0.5954 0.48269,-1.0781 1.07812,-1.0781 0.59543,0 1.07812,0.4827 1.07812,1.0781 z"
      fill="#9266cc"
    />
    <path
      d="m 17.9531,12 c 0,0.5954 -0.4827,1.0781 -1.0781,1.0781 -0.5954,0 -1.0781,-0.4827 -1.0781,-1.0781 0,-0.5954 0.4827,-1.0781 1.0781,-1.0781 0.5954,0 1.0781,0.4827 1.0781,1.0781 z"
      fill="#9266cc"
    />
  </g>
</svg>
